<svg width="500.00000000000006" height="500.00000000000006" xmlns="http://www.w3.org/2000/svg">
 <g>
  <title>Layer 1</title>
  <line stroke-width="25" id="svg_18" y2="351.09847" x2="308.94377" y1="329.24273" x1="218.70877" stroke="#005fbf" fill="none"/>
  <path id="svg_15" d="m125.74022,119.23179l219.44614,33.65454" opacity="undefined" stroke-width="25" stroke="#ff0000" fill="none"/>
  <line stroke-width="25" id="svg_17" y2="271.41529" x2="210.689" y1="197.6573" x1="307.68102" stroke="#00bf00" fill="none"/>
  <ellipse stroke-width="20" ry="70" rx="70" id="svg_6" cy="157.14355" cx="361.02318" stroke="#000" fill="#fff"/>
  <ellipse ry="35" rx="35" id="svg_7" cy="157.14355" cx="360.61996" stroke="#fff" fill="#000" stroke-width="0"/>
  <g id="svg_23">
   <ellipse stroke-width="20" ry="70" rx="70" id="svg_21" cy="115.2932" cx="113.96859" stroke="#000" fill="#fff"/>
   <ellipse ry="35" rx="35" id="svg_22" cy="115.2932" cx="113.56536" stroke="#fff" fill="#000" stroke-width="0"/>
  </g>
  <g id="svg_26">
   <ellipse stroke-width="20" ry="70" rx="70" id="svg_24" cy="314.82718" cx="153.31715" stroke="#000" fill="#fff"/>
   <ellipse ry="35" rx="35" id="svg_25" cy="314.82718" cx="152.91393" stroke="#fff" fill="#000" stroke-width="0"/>
  </g>
  <path transform="rotate(-12.3623, 368.181, 367.327)" id="svg_3" class="st0" d="m452.18112,356.32295l-18.45578,-4.39545c-1.69181,-7.36837 -4.56032,-14.27793 -8.41064,-20.51245l9.96999,-16.28437c1.21892,-1.99708 0.9214,-4.56872 -0.71962,-6.2255l-8.53109,-8.61486c-1.63758,-1.65367 -4.18731,-1.95446 -6.16187,-0.72356l-16.12568,10.06822c-6.17423,-3.88777 -13.01317,-6.78793 -20.3099,-8.496l-4.3558,-18.63665c-0.53259,-2.27708 -2.54938,-3.88812 -4.86437,-3.88812l-12.06775,0c-2.31808,0 -4.33178,1.61104 -4.86472,3.88777l-4.3558,18.637c-7.29672,1.70842 -14.13635,4.60545 -20.3068,8.49323l-16.12911,-10.06788c-1.97148,-1.22812 -4.52738,-0.92698 -6.16187,0.72356l-8.53384,8.61763c-1.64068,1.65643 -1.9358,4.23154 -0.71653,6.22239l9.96689,16.28715c-3.85032,6.23486 -6.71918,13.14095 -8.41064,20.50933l-18.45268,4.39545c-2.25494,0.54128 -3.85306,2.57822 -3.85306,4.91248l0,12.18625c0,2.34361 1.59538,4.37431 3.85306,4.91213l18.45268,4.39892c1.69181,7.36872 4.56375,14.27516 8.41373,20.50967l-9.96999,16.28402c-1.21618,1.99119 -0.92106,4.57495 0.71378,6.2255l8.53384,8.61486c1.64068,1.65955 4.19005,1.95446 6.16497,0.72322l16.12911,-10.06476c6.1708,3.88812 13.01009,6.78481 20.3068,8.49288l4.35545,18.637c0.53294,2.2802 2.54663,3.88812 4.86472,3.88812l12.06775,0c2.31499,0 4.33178,-1.60792 4.86437,-3.88812l4.3558,-18.637c7.29363,-1.70842 14.13567,-4.60476 20.30715,-8.49288l16.12877,10.06788c1.97457,1.23089 4.52429,0.9301 6.16187,-0.72634l8.53418,-8.61486c1.63758,-1.65367 1.93545,-4.23119 0.71653,-6.22239l-9.96999,-16.28715c3.85032,-6.23174 6.71884,-13.14095 8.41064,-20.50655l18.45578,-4.39857c2.26077,-0.54094 3.84997,-2.57441 3.84997,-4.91525l0,-12.18382c-0.00034,-2.34049 -1.59263,-4.37397 -3.85032,-4.91213l0.00001,-0.00001l0.00001,0.00001zm-84.00035,57.65268c-25.50885,0 -46.19211,-20.88636 -46.19211,-46.64846c0,-25.7621 20.68326,-46.6488 46.19211,-46.6488c25.51743,0 46.19795,20.88636 46.19795,46.6488c0,25.7621 -20.68052,46.64846 -46.19795,46.64846z" fill="#000000"/>
  <ellipse ry="30.37444" rx="29.53759" id="svg_8" cy="367.65987" cx="368.44335" stroke-width="0" stroke="#fff" fill="#000"/>
 </g>

</svg>