<svg xmlns="http://www.w3.org/2000/svg" xmlns:xlink="http://www.w3.org/1999/xlink" contentStyleType="text/css" data-diagram-type="STATE" height="1089px" preserveAspectRatio="none" style="width:494px;height:1089px;background:#FFFFFF;" version="1.1" viewBox="0 0 494 1089" width="494px" zoomAndPan="magnify"><title>node.state lifecycle</title><defs/><g><g class="title" data-source-line="2"><text fill="#000000" font-family="sans-serif" font-size="14" font-weight="bold" lengthAdjust="spacing" textLength="135.6595" x="172.5953" y="24.9659">node.state lifecycle</text></g><ellipse cx="42.02" cy="56.0679" fill="#222222" rx="10" ry="10" style="stroke:#222222;stroke-width:1;"/><g id="Unseen"><rect fill="#F1F1F1" height="50" rx="12.5" ry="12.5" style="stroke:#181818;stroke-width:0.5;" width="70.0358" x="7" y="127.0679"/><line style="stroke:#181818;stroke-width:0.5;" x1="7" x2="77.0358" y1="156.1358" y2="156.1358"/><text fill="#000000" font-family="sans-serif" font-size="14" lengthAdjust="spacing" textLength="50.0358" x="17" y="147.0339">Unseen</text></g><g id="Visiting"><rect fill="#F1F1F1" height="50" rx="12.5" ry="12.5" style="stroke:#181818;stroke-width:0.5;" width="68.2578" x="7.89" y="256.0679"/><line style="stroke:#181818;stroke-width:0.5;" x1="7.89" x2="76.1478" y1="285.1358" y2="285.1358"/><text fill="#000000" font-family="sans-serif" font-size="14" lengthAdjust="spacing" textLength="48.2578" x="17.89" y="276.0339">Visiting</text></g><g id="Visited"><rect fill="#F1F1F1" height="50" rx="12.5" ry="12.5" style="stroke:#181818;stroke-width:0.5;" width="63.8898" x="137.07" y="385.0679"/><line style="stroke:#181818;stroke-width:0.5;" x1="137.07" x2="200.9598" y1="414.1358" y2="414.1358"/><text fill="#000000" font-family="sans-serif" font-size="14" lengthAdjust="spacing" textLength="43.8898" x="147.07" y="405.0339">Visited</text></g><g id="Failed"><rect fill="#F1F1F1" height="50" rx="12.5" ry="12.5" style="stroke:#181818;stroke-width:0.5;" width="58.8499" x="100.59" y="950.0679"/><line style="stroke:#181818;stroke-width:0.5;" x1="100.59" x2="159.4399" y1="979.1358" y2="979.1358"/><text fill="#000000" font-family="sans-serif" font-size="14" lengthAdjust="spacing" textLength="38.8499" x="110.59" y="970.0339">Failed</text></g><g id="Pending"><rect fill="#F1F1F1" height="50" rx="12.5" ry="12.5" style="stroke:#181818;stroke-width:0.5;" width="74.5018" x="187.77" y="514.0679"/><line style="stroke:#181818;stroke-width:0.5;" x1="187.77" x2="262.2718" y1="543.1358" y2="543.1358"/><text fill="#000000" font-family="sans-serif" font-size="14" lengthAdjust="spacing" textLength="54.5018" x="197.77" y="534.0339">Pending</text></g><g id="Skipped"><rect fill="#F1F1F1" height="50" rx="12.5" ry="12.5" style="stroke:#181818;stroke-width:0.5;" width="72.4998" x="361.77" y="723.0679"/><line style="stroke:#181818;stroke-width:0.5;" x1="361.77" x2="434.2698" y1="752.1358" y2="752.1358"/><text fill="#000000" font-family="sans-serif" font-size="14" lengthAdjust="spacing" textLength="52.4998" x="371.77" y="743.0339">Skipped</text></g><g id="Running"><rect fill="#F1F1F1" height="50" rx="12.5" ry="12.5" style="stroke:#181818;stroke-width:0.5;" width="75.5378" x="187.25" y="643.0679"/><line style="stroke:#181818;stroke-width:0.5;" x1="187.25" x2="262.7878" y1="672.1358" y2="672.1358"/><text fill="#000000" font-family="sans-serif" font-size="14" lengthAdjust="spacing" textLength="55.5378" x="197.25" y="663.0339">Running</text></g><g id="Done"><rect fill="#F1F1F1" height="50" rx="12.5" ry="12.5" style="stroke:#181818;stroke-width:0.5;" width="55.2379" x="228.4" y="803.0679"/><line style="stroke:#181818;stroke-width:0.5;" x1="228.4" x2="283.6379" y1="832.1358" y2="832.1358"/><text fill="#000000" font-family="sans-serif" font-size="14" lengthAdjust="spacing" textLength="35.2379" x="238.4" y="823.0339">Done</text></g><g id="Cleaned"><rect fill="#F1F1F1" height="50" rx="12.5" ry="12.5" style="stroke:#181818;stroke-width:0.5;" width="73.3678" x="256.33" y="950.0679"/><line style="stroke:#181818;stroke-width:0.5;" x1="256.33" x2="329.6978" y1="979.1358" y2="979.1358"/><text fill="#000000" font-family="sans-serif" font-size="14" lengthAdjust="spacing" textLength="53.3678" x="266.33" y="970.0339">Cleaned</text></g><ellipse cx="293.02" cy="1072.0679" fill="none" rx="11" ry="11" style="stroke:#222222;stroke-width:1;"/><ellipse cx="293.02" cy="1072.0679" fill="#222222" rx="6" ry="6" style="stroke:#222222;stroke-width:1;"/><!--link *start* to Unseen--><g class="link" data-entity-1=".start." data-entity-2="Unseen" data-source-line="5" data-uid="lnk4" id="link_.start._Unseen"><path d="M42.02,66.4279 C42.02,80.3579 42.02,101.0179 42.02,120.7179" fill="none" id="*start*-to-Unseen" style="stroke:#181818;stroke-width:1;"/><polygon fill="#181818" points="42.02,126.7179,46.02,117.7179,42.02,121.7179,38.02,117.7179,42.02,126.7179" style="stroke:#181818;stroke-width:1;"/></g><!--link Unseen to Visiting--><g class="link" data-entity-1="Unseen" data-entity-2="Visiting" data-source-line="7" data-uid="lnk6" id="link_Unseen_Visiting"><path d="M42.02,177.5579 C42.02,200.0479 42.02,227.1879 42.02,249.6579" fill="none" id="Unseen-to-Visiting" style="stroke:#181818;stroke-width:1;"/><polygon fill="#181818" points="42.02,255.6579,46.02,246.6579,42.02,250.6579,38.02,246.6579,42.02,255.6579" style="stroke:#181818;stroke-width:1;"/><text fill="#000000" font-family="sans-serif" font-size="13" lengthAdjust="spacing" textLength="32.032" x="43.02" y="221.9649">visit()</text></g><!--link Visiting to Visited--><g class="link" data-entity-1="Visiting" data-entity-2="Visited" data-source-line="8" data-uid="lnk8" id="link_Visiting_Visited"><path d="M66.5,306.5579 C88.99,329.0479 117.8974,357.9453 140.3674,380.4153" fill="none" id="Visiting-to-Visited" style="stroke:#181818;stroke-width:1;"/><polygon fill="#181818" points="144.61,384.6579,141.0745,375.4655,141.0745,381.1224,135.4176,381.1224,144.61,384.6579" style="stroke:#181818;stroke-width:1;"/><text fill="#000000" font-family="sans-serif" font-size="13" lengthAdjust="spacing" textLength="140.6601" x="114.12" y="350.9649">dependencies resolved</text></g><!--link Visiting to Failed--><g class="link" data-entity-1="Visiting" data-entity-2="Failed" data-source-line="9" data-uid="lnk10" id="link_Visiting_Failed"><path d="M33,306.5079 C24.49,331.8079 13.02,372.6579 13.02,409.0679 C13.02,409.0679 13.02,409.0679 13.02,829.0679 C13.02,884.5379 60.6285,927.3074 95.2885,951.7774" fill="none" id="Visiting-to-Failed" style="stroke:#181818;stroke-width:1;"/><polygon fill="#181818" points="100.19,955.2379,95.1447,946.7795,96.1054,952.3542,90.5307,953.3149,100.19,955.2379" style="stroke:#181818;stroke-width:1;"/><text fill="#000000" font-family="sans-serif" font-size="13" lengthAdjust="spacing" textLength="167.0372" x="14.02" y="608.9649">cycle / missing dependency</text></g><!--link Visited to Pending--><g class="link" data-entity-1="Visited" data-entity-2="Pending" data-source-line="11" data-uid="lnk12" id="link_Visited_Pending"><path d="M179.82,435.5579 C189.73,458.0479 201.9309,485.6972 211.8309,508.1672" fill="none" id="Visited-to-Pending" style="stroke:#181818;stroke-width:1;"/><polygon fill="#181818" points="214.25,513.6579,214.2818,503.8091,212.2341,509.0823,206.9608,507.0346,214.25,513.6579" style="stroke:#181818;stroke-width:1;"/><text fill="#000000" font-family="sans-serif" font-size="13" lengthAdjust="spacing" textLength="91.3641" x="201.37" y="479.9649">graph finalized</text></g><!--link Pending to Skipped--><g class="link" data-entity-1="Pending" data-entity-2="Skipped" data-source-line="13" data-uid="lnk14" id="link_Pending_Skipped"><path d="M262.58,547.0479 C290.91,554.2079 328.76,568.0979 352.02,594.0679 C384.77,630.6379 393.7274,683.7982 396.4474,716.8182" fill="none" id="Pending-to-Skipped" style="stroke:#181818;stroke-width:1;"/><polygon fill="#181818" points="396.94,722.7979,400.1876,713.4999,396.5295,717.8148,392.2146,714.1567,396.94,722.7979" style="stroke:#181818;stroke-width:1;"/><text fill="#000000" font-family="sans-serif" font-size="13" lengthAdjust="spacing" textLength="121.0301" x="365.82" y="608.9649">NeedsRun() == false</text></g><!--link Pending to Running--><g class="link" data-entity-1="Pending" data-entity-2="Running" data-source-line="14" data-uid="lnk16" id="link_Pending_Running"><path d="M225.02,564.5579 C225.02,587.0479 225.02,614.1879 225.02,636.6579" fill="none" id="Pending-to-Running" style="stroke:#181818;stroke-width:1;"/><polygon fill="#181818" points="225.02,642.6579,229.02,633.6579,225.02,637.6579,221.02,633.6579,225.02,642.6579" style="stroke:#181818;stroke-width:1;"/><text fill="#000000" font-family="sans-serif" font-size="13" lengthAdjust="spacing" textLength="117.7801" x="226.02" y="608.9649">NeedsRun() == true</text></g><!--link Running to Done--><g class="link" data-entity-1="Running" data-entity-2="Done" data-source-line="16" data-uid="lnk18" id="link_Running_Done"><path d="M229.79,693.4079 C235.62,723.0979 244.2543,767.1103 250.0843,796.8103" fill="none" id="Running-to-Done" style="stroke:#181818;stroke-width:1;"/><polygon fill="#181818" points="251.24,802.6979,253.4315,793.096,250.2769,797.7916,245.5813,794.6369,251.24,802.6979" style="stroke:#181818;stroke-width:1;"/><text fill="#000000" font-family="sans-serif" font-size="13" lengthAdjust="spacing" textLength="73.7231" x="246.11" y="753.4649">Execute() ok</text></g><!--link Running to Failed--><g class="link" data-entity-1="Running" data-entity-2="Failed" data-source-line="17" data-uid="lnk19" id="link_Running_Failed"><path d="M197.08,693.4879 C171.18,718.1279 134.41,758.7979 119.02,803.0679 C101.68,852.9479 112.1316,910.0685 121.1216,943.9585" fill="none" id="Running-to-Failed" style="stroke:#181818;stroke-width:1;"/><polygon fill="#181818" points="122.66,949.7579,124.2187,940.0332,121.378,944.9251,116.4861,942.0844,122.66,949.7579" style="stroke:#181818;stroke-width:1;"/><text fill="#000000" font-family="sans-serif" font-size="13" lengthAdjust="spacing" textLength="90.2201" x="120.02" y="833.4649">Execute() error</text></g><!--link Done to Cleaned--><g class="link" data-entity-1="Done" data-entity-2="Cleaned" data-source-line="19" data-uid="lnk21" id="link_Done_Cleaned"><path d="M262.21,853.3379 C269.04,880.1079 278.4883,917.1038 285.3183,943.9038" fill="none" id="Done-to-Cleaned" style="stroke:#181818;stroke-width:1;"/><polygon fill="#181818" points="286.8,949.7179,288.4535,940.0089,285.5652,944.8728,280.7013,941.9845,286.8,949.7179" style="stroke:#181818;stroke-width:1;"/><text fill="#000000" font-family="sans-serif" font-size="13" lengthAdjust="spacing" textLength="82.1081" x="279.92" y="897.9649">usersleft == 0</text><text fill="#000000" font-family="sans-serif" font-size="13" lengthAdjust="spacing" textLength="76.2451" x="282.8515" y="915.6709">Cleanup() ok</text></g><!--link Done to Failed--><g class="link" data-entity-1="Done" data-entity-2="Failed" data-source-line="20" data-uid="lnk22" id="link_Done_Failed"><path d="M228.24,840.5379 C209.13,849.6379 184.34,864.0079 168.02,883.0679 C151.43,902.4479 142.9163,924.3254 137.3263,944.0454" fill="none" id="Done-to-Failed" style="stroke:#181818;stroke-width:1;"/><polygon fill="#181818" points="135.69,949.8179,141.9929,942.25,137.0536,945.0075,134.2961,940.0682,135.69,949.8179" style="stroke:#181818;stroke-width:1;"/><text fill="#000000" font-family="sans-serif" font-size="13" lengthAdjust="spacing" textLength="92.7421" x="169.02" y="906.9649">Cleanup() error</text></g><!--link Skipped to *end*--><g class="link" data-entity-1="Skipped" data-entity-2=".end." data-source-line="22" data-uid="lnk24" id="link_Skipped_.end."><path d="M397.35,773.2979 C395.17,819.7579 385.95,923.5879 347.02,1000.0679 C334.09,1025.4579 315.9316,1046.6301 304.4416,1059.0101" fill="none" id="Skipped-to-*end*" style="stroke:#181818;stroke-width:1;"/><polygon fill="#181818" points="300.36,1063.4079,309.4143,1059.5323,303.7613,1059.7431,303.5506,1054.0902,300.36,1063.4079" style="stroke:#181818;stroke-width:1;"/></g><!--link Cleaned to *end*--><g class="link" data-entity-1="Cleaned" data-entity-2=".end." data-source-line="23" data-uid="lnk25" id="link_Cleaned_.end."><path d="M293.02,1000.5279 C293.02,1020.1079 293.02,1040.5579 293.02,1054.8679" fill="none" id="Cleaned-to-*end*" style="stroke:#181818;stroke-width:1;"/><polygon fill="#181818" points="293.02,1060.8679,297.02,1051.8679,293.02,1055.8679,289.02,1051.8679,293.02,1060.8679" style="stroke:#181818;stroke-width:1;"/></g><!--link Failed to *end*--><g class="link" data-entity-1="Failed" data-entity-2=".end." data-source-line="24" data-uid="lnk26" id="link_Failed_.end."><path d="M159.91,993.4879 C197.6,1015.4579 255.0967,1048.9658 278.5767,1062.6558" fill="none" id="Failed-to-*end*" style="stroke:#181818;stroke-width:1;"/><polygon fill="#181818" points="283.76,1065.6779,277.9998,1057.6892,279.4406,1063.1595,273.9703,1064.6003,283.76,1065.6779" style="stroke:#181818;stroke-width:1;"/></g><!--SRC=[NP5FJmCX4CNFowUOOsjIzMnIB_uv6gFHYteWosmxMJeGXgtMJo-mkpJh3TxxlGS3aQ95O6VmKgAE29OwR4-jHIKziTT17q3sshXluXrqsWegrNnSVC5cSmjlB8YSX75Hj7SIYXc-WMDUhjQggLe5q2JVe4Sso2sXG41nzeZc7_seoHQut0gku40YsQpXaveY2Sk9voIFv- -2zdleYBMbtzIicjdBt6jFtfVg9qGZBmElrh3TJaCkqEJnMBb4OnZoSynsHkyTO-8UVh0T8YRCzKkW3dH6C0GNKa_9PkREekO23O91B7On7tVzoSKP_DHR0xNqxC-byvWPI_-cchcy2bDutly1]--></g></svg>